<?xml version="1.0" encoding="UTF-8" standalone="no"?>
<!-- Created with Inkscape (http://www.inkscape.org/) -->

<svg
   xmlns:dc="http://purl.org/dc/elements/1.1/"
   xmlns:cc="http://creativecommons.org/ns#"
   xmlns:rdf="http://www.w3.org/1999/02/22-rdf-syntax-ns#"
   xmlns:svg="http://www.w3.org/2000/svg"
   xmlns="http://www.w3.org/2000/svg"
   xmlns:sodipodi="http://sodipodi.sourceforge.net/DTD/sodipodi-0.dtd"
   xmlns:inkscape="http://www.inkscape.org/namespaces/inkscape"
   width="52.963001mm"
   height="52.963001mm"
   viewBox="0 0 52.963002 52.963002"
   version="1.1"
   id="svg3163"
   inkscape:version="0.92.4 (5da689c313, 2019-01-14)"
   sodipodi:docname="Logo.svg"
   inkscape:export-filename="F:\OneDrivePersonal\OneDrive\Desktop\Simple Site\favicon.png"
   inkscape:export-xdpi="17.049999"
   inkscape:export-ydpi="17.049999">
  <defs
     id="defs3157" />
  <sodipodi:namedview
     id="base"
     pagecolor="#ffffff"
     bordercolor="#666666"
     borderopacity="1.0"
     inkscape:pageopacity="0.0"
     inkscape:pageshadow="2"
     inkscape:zoom="1.979899"
     inkscape:cx="120.73409"
     inkscape:cy="55.576269"
     inkscape:document-units="mm"
     inkscape:current-layer="layer1"
     showgrid="false"
     fit-margin-top="0"
     fit-margin-left="0"
     fit-margin-right="0"
     fit-margin-bottom="0"
     inkscape:window-width="1920"
     inkscape:window-height="1017"
     inkscape:window-x="1912"
     inkscape:window-y="-8"
     inkscape:window-maximized="1" />
  <metadata
     id="metadata3160">
    <rdf:RDF>
      <cc:Work
         rdf:about="">
        <dc:format>image/svg+xml</dc:format>
        <dc:type
           rdf:resource="http://purl.org/dc/dcmitype/StillImage" />
        <dc:title></dc:title>
      </cc:Work>
    </rdf:RDF>
  </metadata>
  <g
     inkscape:label="Layer 1"
     inkscape:groupmode="layer"
     id="layer1"
     transform="translate(-75.241028,-99.38736)">
    <g
       id="g845">
      <rect
         ry="3.1253082e-06"
         y="99.38736"
         x="75.241028"
         height="52.963001"
         width="52.963001"
         id="rect835"
         style="opacity:1;fill:#72727e;fill-opacity:0;stroke:none;stroke-width:1;stroke-linecap:butt;stroke-linejoin:miter;stroke-miterlimit:4;stroke-dasharray:none;stroke-dashoffset:3.02740145;stroke-opacity:1" />
      <path
         inkscape:export-ydpi="17.049999"
         inkscape:export-xdpi="17.049999"
         inkscape:export-filename="F:\OneDrivePersonal\OneDrive\Desktop\Simple Site\favicon.png"
         d="m 125.3936,125.3988 a 23.340029,23.340029 0 0 1 -23.33656,23.34003 23.340029,23.340029 0 0 1 -23.343494,-23.3331 23.340029,23.340029 0 0 1 23.329644,-23.34695 23.340029,23.340029 0 0 1 23.35041,23.32617"
         sodipodi:open="true"
         sodipodi:end="6.2825919"
         sodipodi:start="0"
         sodipodi:ry="23.340029"
         sodipodi:rx="23.340029"
         sodipodi:cy="125.3988"
         sodipodi:cx="102.05357"
         sodipodi:type="arc"
         id="path928-1-6-6"
         style="opacity:1;fill:#72727e;fill-opacity:1;stroke:#f8f8f8;stroke-width:1;stroke-linecap:butt;stroke-linejoin:miter;stroke-miterlimit:4;stroke-dasharray:none;stroke-dashoffset:3.02740145;stroke-opacity:1" />
      <g
         inkscape:export-ydpi="17.049999"
         inkscape:export-xdpi="17.049999"
         inkscape:export-filename="F:\OneDrivePersonal\OneDrive\Desktop\Simple Site\favicon.png"
         id="text3126"
         style="font-style:normal;font-weight:normal;font-size:5.33797455px;line-height:1.25;font-family:sans-serif;letter-spacing:0px;word-spacing:0px;fill:#f8f8f8;fill-opacity:1;stroke:none;stroke-width:0.26458335"
         transform="scale(0.86119234,1.1611808)"
         aria-label="DPJ">
        <path
           inkscape:connector-curvature="0"
           id="path828"
           style="font-style:normal;font-variant:normal;font-weight:bold;font-stretch:normal;font-size:22.87703323px;line-height:0px;font-family:'Rage Italic';-inkscape-font-specification:'Rage Italic,  Bold';fill:#f8f8f8;fill-opacity:1;stroke-width:0.26458335"
           d="m 99.012882,105.90273 0.06702,-0.24575 0.27926,-0.3016 q 0.02234,-0.0223 0.02234,-0.0447 v -0.067 q 0,-0.16756 0.346284,-0.36863 0.02234,-0.27926 0.379794,-0.4133 l 0.0559,-0.0447 v -0.0894 q 0,-0.16755 0.23458,-0.2234 0.24574,-0.0559 0.37979,-0.21224 0.20107,-0.0447 0.63671,-0.48033 0.0447,-0.0894 0.11171,-0.0894 l 0.25692,-0.0224 q 0.32394,-0.34628 0.4133,-0.35745 0.0894,-0.0112 0.1899,-0.0782 0.10053,-0.067 0.29043,-0.10054 0.0559,-0.0782 0.7931,-0.45798 h 0.23458 q 0.0447,0 0.14522,-0.0894 0.1117,-0.0894 0.32394,-0.12287 0.22341,-0.0335 0.58086,-0.14522 0.36863,-0.12287 0.59203,-0.16755 l 0.21224,-0.11171 h 0.34629 l 0.1117,-0.0894 0.70374,-0.0894 0.7149,-0.16756 0.20107,0.0223 0.14522,-0.0223 0.24575,0.0558 q 0.0447,0 0.14521,-0.0447 0.11171,-0.0558 0.20107,-0.0558 0.33511,0 0.6032,0.0782 0.27926,0.0782 0.42448,0.10053 0.14521,0.0112 0.23458,0.0559 0.0894,0.0447 0.1117,0.0447 l 0.29043,-0.0223 q 0.0223,0 0.0894,0.0782 0.0782,0.0782 0.21223,0.12287 h 0.20107 q 0.0223,0.0224 0.067,0.0224 0.13405,0.1117 0.48033,0.27926 0.24575,0.18989 0.25692,0.20106 0.0894,-0.0335 0.69257,0.46916 0.6032,0.50267 0.77076,0.77076 l 0.23458,0.3016 0.1117,0.29043 0.11171,0.1899 q 0.17872,0.45799 0.32394,1.07236 l 0.0894,0.22341 q 0.0223,0.0223 0.0223,0.10053 l -0.067,0.31278 0.0894,0.4133 q 0,0.13405 -0.0894,0.39097 0.0447,0.1117 0.0447,0.13404 0,0.0223 -0.0894,0.35746 -0.0894,0.32394 -0.0894,0.37979 l 0.0447,0.22341 q 0,0.0447 -0.10054,0.14521 -0.0894,0.0894 -0.0894,0.13405 0,0.14522 -0.0782,0.27926 -0.0782,0.13405 -0.10054,0.17873 l -0.18989,0.31277 q -0.0447,0.16756 -0.11171,0.1899 -0.067,0.0223 -0.067,0.15638 -0.0223,0.0223 -0.15639,0.13405 l -0.1117,0.16755 -0.45799,0.48033 q -0.067,0.24575 -0.53618,0.56969 l -0.13404,0.13405 q -0.60321,0.4915 -0.73725,0.58086 -0.13405,0.0894 -0.22341,0.20107 -0.0894,0.1117 -0.29043,0.22341 -0.0335,0.0559 -0.27926,0.23458 l -0.15639,-0.0223 q -0.0782,0.13404 -0.1899,0.18989 -0.1117,0.0559 -0.16755,0.10054 -0.0558,0.0447 -0.0782,0.0447 -0.0223,0 -0.10053,-0.0223 -0.1117,0.16755 -0.31277,0.24575 -0.1899,0.0782 -0.29043,0.14521 -0.10054,0.067 -0.12288,0.067 l -0.17872,-0.067 q 0,0.24575 -0.17873,0.26809 -0.17873,0.0223 -0.3016,0.10054 l -0.23458,-0.0223 q -0.41331,0.4133 -1.18407,0.4133 -0.14521,0.17873 -0.18989,0.17873 l -0.20107,-0.0447 q -0.0894,0.0447 -0.15639,0.0447 -0.0558,0 -0.4133,0.1117 -0.13405,-0.0894 -0.32395,-0.0894 l 0.0224,0.1899 q 0,0.1117 -0.30161,0.1117 -0.1117,0 -0.24575,-0.067 -0.13404,0.0447 -0.16755,0.0447 -0.067,0 -0.10054,-0.0782 -0.0335,-0.0894 -0.0558,-0.0894 -0.22341,0.36863 -0.78193,0.36863 -0.0559,0 -0.63671,0.14521 l -0.13405,0.0223 q -0.0447,0 -0.0894,-0.0223 l -0.1899,-0.0223 q -0.0447,0 -0.17872,-0.0559 -0.067,0.12287 -0.11171,0.12287 -0.21224,0 -0.52501,0.067 -0.10053,-0.0559 -0.46916,-0.0782 -0.35745,-0.0335 -0.44681,-0.13404 h -0.0223 q -0.0224,0 -0.0782,0.0223 h -0.0447 q -0.0447,0 -0.1117,-0.0335 -0.067,-0.0335 -0.22341,-0.0559 -0.14522,-0.0223 -0.301608,-0.23458 -0.156386,-0.22341 -0.156386,-0.3798 0,-0.21224 0.178727,-0.39096 0.178727,-0.17873 0.368627,-0.17873 0.0894,0 0.24575,0.067 h 0.12288 l 0.17872,0.0223 0.067,-0.0223 q -0.0447,-0.15638 -0.0447,-0.16755 0,-0.33512 0.23458,-0.56969 l 0.15639,-0.43565 q 0.0223,-0.0447 0.13404,-0.12288 0.11171,-0.0782 0.11171,-0.21223 l 0.10053,-0.23458 0.0223,-0.15639 0.11171,-0.15638 q 0.0894,-0.12288 0.1117,-0.23458 0.0223,-0.11171 0.15639,-0.15639 0,-0.23458 0.15638,-0.37979 0.16756,-0.14522 0.16756,-0.22341 0,-0.22341 0.15638,-0.24575 0.0559,-0.0447 0.0559,-0.0894 0,-0.0447 -0.0559,-0.14521 0.0782,-0.22341 0.21224,-0.24575 0.14522,-0.0223 0.17873,-0.0447 -0.0894,-0.0223 -0.0894,-0.11171 0,-0.10053 0.067,-0.18989 l 0.1117,-0.29043 q 0.0559,-0.14522 0.27926,-0.27927 -0.067,-0.067 -0.067,-0.1117 0,-0.0223 0.067,-0.0894 l 0.15639,0.0447 q 0,-0.0223 0.0223,-0.0223 l 0.0223,-0.25692 -0.0223,-0.15639 q 0,-0.0223 0.25692,-0.14521 l 0.0447,-0.11171 q -0.15638,0 -0.3016,-0.0447 -0.21224,0.0894 -0.31277,0.15639 -0.0223,0.0335 -0.1899,0.0335 h -0.067 q -0.0223,0 -0.20107,-0.0558 -0.0447,0.0223 -0.10053,0.1117 -0.0447,0.0782 -0.067,0.0782 l -0.33511,-0.1117 q -0.0447,0 -0.17872,0.12287 -0.12288,0.12288 -0.23458,0.12288 -0.0559,0 -0.1899,-0.067 -0.0894,0.067 -0.42448,0.067 -0.14521,0 -0.3016,0.067 l -0.17873,-0.0223 -0.14521,0.0223 q -0.0447,0 -0.33511,-0.20107 -0.167564,0.0447 -0.212246,0.0447 l -0.178727,-0.0894 q -0.178727,-0.0894 -0.290431,-0.10053 -0.100534,-0.0112 -0.201068,-0.0559 -0.08936,-0.0447 -0.100533,-0.0447 -0.01117,-0.0112 -0.100534,-0.1117 -0.08936,-0.10053 -0.201068,-0.14522 -0.111704,-0.0447 -0.111704,-0.18989 l -0.04468,-0.50267 q 0,-0.067 0.05585,-0.17873 0.05585,-0.1117 0.05585,-0.20107 0,-0.14521 0.178727,-0.23458 z m 2.658558,1.11705 h 0.0447 q 0.17872,0 0.17872,0.14521 0,0.0447 -0.0447,0.11171 0.0447,0.0223 0.067,0.0223 0.0447,0 0.15639,-0.16756 0.1117,-0.17873 0.58086,-0.17873 0.0223,0 0.0559,0.0223 0.0335,0.0224 0.0559,0.0224 0.0223,0 0.10053,-0.067 0.0782,-0.067 0.12287,-0.067 l 0.50267,-0.1117 q 0.71491,-0.11171 0.71491,-0.27926 l -0.0223,-0.15639 q 0.0447,-0.0894 0.20107,-0.26809 0.16755,-0.1899 0.16755,-0.39097 l 0.067,-0.25692 v -0.1117 q 0,-0.3016 0.4133,-0.36862 v -0.0223 l -0.1117,-0.34629 0.0223,-0.0447 q 0.15638,-0.0782 0.15638,-0.1117 0,-0.0223 -0.1117,-0.13405 -0.10053,-0.12287 -0.10053,-0.69257 0,-0.32394 0.36862,-0.32394 0.48033,0 0.86012,0.42448 0.3798,0.42447 0.3798,0.94948 0,0.39097 -0.39097,1.1729 l -0.067,0.24575 h 0.17873 l 0.27926,-0.0447 0.20107,0.0223 q 0.14521,0 0.33511,-0.0894 0.1899,-0.0894 0.34628,-0.1117 0.16756,-0.0223 0.32394,-0.13404 0.32395,-0.0782 0.54735,-0.11171 0.23458,-0.0335 0.43565,-0.14521 h 0.0559 q 0.0223,0 0.0894,0.0894 h 0.0223 q 0.0223,0 0.067,-0.0223 0.067,-0.15639 0.29043,-0.23458 0.23458,-0.0894 0.3016,-0.17873 l 0.1899,-0.20107 q 0,-0.0223 0.35745,-0.23457 0.36863,-0.22341 0.54735,-0.22341 0.34629,0 0.41331,0.26809 l 0.067,0.18989 v 0.0224 q 0,0.27926 -0.44681,0.68139 -0.43565,0.40214 -1.16173,0.58086 -0.72608,0.17873 -0.88246,0.17873 -0.067,0 -0.13405,-0.1117 l -0.23458,0.067 -0.067,0.1117 q 0,0.0223 -0.0447,0.0223 l -0.13405,-0.0894 h -0.0447 q -0.1117,0.10053 -0.42447,0.20107 -0.3016,0.10053 -0.46916,0.16755 h -0.22341 q -0.17873,0 -0.4915,0.11171 l -0.20107,0.0223 q -0.39096,0.067 -0.43564,0.0894 -0.0447,0.0223 -0.16756,0.3016 l -0.27926,0.61438 q -0.0559,0.13404 -0.1899,0.34628 l -0.16755,0.26809 q -0.0223,0 -0.0223,0.0223 l 0.0558,0.16756 v 0.0223 q -0.69257,0.92714 -0.94949,1.60854 -0.25692,0.6814 -0.56969,1.23992 -0.3016,0.54735 -0.37979,0.75959 -0.0782,0.21224 -0.14522,0.33511 -0.067,0.12287 -0.067,0.14522 0,0.0558 0.067,0.0558 h 0.0894 q 0.12288,-0.10054 0.24575,-0.11171 0.12288,-0.0112 0.25692,-0.0335 l 0.12288,0.0447 h 0.17872 q 0.0112,0 0.1899,-0.1117 l 0.0894,0.0223 0.20107,-0.0223 0.1899,0.0223 q 0.0223,0 0.0782,-0.0335 0.0558,-0.0335 0.14522,-0.0447 0.0894,-0.0112 0.13404,-0.0447 0.0447,-0.0335 0.067,-0.0335 l 0.10053,0.0224 q 0.0223,0.0223 0.0447,0.0223 0.067,0 0.13405,-0.17873 l 0.20106,0.067 q 0,-0.16755 0.10054,-0.16755 0.31277,0 0.35745,-0.0223 l 0.12288,0.0223 h 0.0223 q 0.0223,0 0.13404,-0.067 l 1.21758,-0.45798 q 0.13404,-0.0224 0.50267,-0.29044 l 0.22341,-0.10053 q 0.23458,-0.1117 0.3016,-0.17873 0.067,-0.067 0.1117,-0.067 0.32394,0 0.43565,-0.27926 0.0447,-0.0223 0.17873,-0.13404 l 0.1117,-0.0223 q 0.16756,-0.0447 0.36862,-0.20106 l 0.21224,-0.16756 q 0.067,-0.067 0.24575,-0.0894 0.41331,-0.50267 0.59203,-0.59204 l 0.16756,-0.0894 q 0.0223,-0.1899 0.15639,-0.3016 0.13404,-0.1117 0.16755,-0.24575 0.0447,-0.14522 0.13405,-0.14522 h 0.067 q 0.0447,0 0.0447,-0.0447 l -0.0223,-0.20106 q 0,-0.1899 0.22341,-0.1899 v -0.067 l -0.0223,-0.17873 v -0.0223 q 0,-0.1899 0.16756,-0.24575 0.17872,-0.0559 0.17872,-0.21224 0,-0.12287 -0.0335,-0.25692 -0.0335,-0.13404 -0.0335,-0.15639 0,-0.21223 0.3016,-0.34628 l 0.0223,-0.0447 q 0,-0.0223 -0.0894,-0.0894 -0.0782,-0.067 -0.0782,-0.13405 0,-0.0335 0.0447,-0.14521 0.0447,-0.11171 0.0447,-0.13405 0,-0.0223 -0.0559,-0.1117 -0.0559,-0.0894 -0.0559,-0.16756 0,-0.0894 0.067,-0.22341 0.067,-0.13404 0.067,-0.17873 0,-0.10053 -0.0223,-0.16755 -0.13405,-0.067 -0.13405,-0.15639 v -0.0447 l 0.0223,-0.0894 -0.0223,-0.14522 0.0447,-0.13404 q -0.067,-0.20107 -0.11171,-0.39097 -0.0447,-0.20107 -0.15638,-0.31277 -0.10054,-0.12288 -0.10054,-0.16756 v -0.0223 l 0.0559,-0.15638 q 0,-0.0223 -0.0782,-0.0447 -0.56969,-0.75958 -1.50801,-1.15055 -0.93831,-0.39096 -0.96065,-0.39096 l -0.24575,0.0223 q -0.1899,-0.0894 -0.21224,-0.0894 l -0.11171,0.0223 q -0.0223,0.0223 -0.0447,0.0223 -0.0447,0 -0.20106,-0.0894 l -0.27927,0.0223 -0.27926,-0.0223 q -0.52501,-0.0447 -0.83778,0.0447 l -0.89363,0.14522 q -0.0447,0 -0.36863,0.1117 -0.17872,0.11171 -0.73724,0.22341 h -0.26809 q -0.0224,0 -0.13405,0.11171 -0.1117,0.1117 -0.71491,0.27926 -0.15638,0.15638 -0.26809,0.18989 -0.10053,0.0223 -0.14521,0.0782 -0.0447,0.0559 -0.0894,0.0559 h -0.15638 q -0.12288,0 -0.26809,0.17873 -0.14522,0.17872 -0.67023,0.4133 l -0.12287,0.11171 -0.22341,0.12287 q -0.067,0.0223 -0.11171,0.0894 l -0.0447,0.0447 q -0.27926,0.0782 -0.35745,0.25692 -0.0782,0.17872 -0.21224,0.21223 -0.12287,0.0335 -0.15638,0.16756 -0.0335,0.13404 -0.16756,0.22341 -0.13405,0.0894 -0.43565,0.52501 -0.3016,0.42447 -0.3016,0.62554 0,0.14522 0.13405,0.41331 0.13404,0.26809 0.39096,0.26809 0.21224,0 0.32394,0.0559 0.11171,0.0447 0.20107,0.0447 0.36862,0 0.6032,-0.14521 z" />
        <path
           inkscape:connector-curvature="0"
           id="path830"
           style="font-style:normal;font-variant:normal;font-weight:bold;font-stretch:normal;font-size:22.87703323px;line-height:0px;font-family:'Rage Italic';-inkscape-font-specification:'Rage Italic,  Bold';fill:#f8f8f8;fill-opacity:1;stroke-width:0.26458335"
           d="m 118.33772,101.49042 0.0894,-0.11171 q 0.0782,-0.1117 0.22341,-0.12287 0.14522,-0.0223 0.27926,-0.0894 l 1.64206,-0.45798 q 0.23457,-0.0559 0.58086,-0.0894 l 0.35745,-0.1117 q 0.14522,-0.067 0.41331,-0.067 l 0.36862,-0.0782 q 0.0447,0 0.0782,0.0894 0.0335,0.0782 0.0559,0.0782 0.52501,-0.34628 0.67022,-0.34628 h 0.0223 l 0.26809,0.067 q 0.067,0 0.14522,-0.0894 l 0.0447,-0.0447 q 0.24575,0.11171 0.26809,0.11171 0.16756,0 0.37979,-0.067 0.21224,-0.067 0.40214,-0.067 l 0.34628,0.0223 0.77076,-0.0447 q 0.067,0 0.14522,0.067 l 0.22341,-0.0447 q 0.32394,0 0.63671,0.0894 0.32394,0.0894 0.77076,0.13404 0.44682,0.0447 0.64789,0.3016 l 0.18989,0.067 h 0.13405 q 0.29043,0 0.34628,0.23458 0.067,0.13405 0.26809,0.26809 l 0.14522,0.23458 q -0.0223,0.067 -0.0223,0.13405 0,0.067 0.24575,0.15638 l 0.0447,0.0223 q 0.0112,0.16756 0.21224,0.39097 0.20106,0.21224 0.20106,0.80427 v 0.26809 l 0.0447,0.58086 q 0,0.59204 -0.35745,1.42982 -0.34628,0.83778 -0.73725,1.17289 -0.0894,0.3016 -0.21224,0.3016 -0.39096,0.35746 -0.50266,0.35746 -0.0223,0 -0.067,-0.0223 -0.14521,0.26809 -0.4915,0.46915 -0.33511,0.20107 -0.43564,0.23458 -0.10054,0.0335 -0.51384,0.1899 l -0.26809,-0.067 q -0.16756,0.15638 -0.23458,0.16755 l -0.59203,0.24575 q -0.74842,0.20107 -0.983,0.20107 l -0.27926,-0.0894 q -0.067,0 -0.20107,0.16755 l -0.21224,0.0447 q -0.067,-0.067 -0.43564,-0.10054 -0.15639,0.10054 -0.25692,0.10054 l -0.4915,0.067 q -0.0894,0 -0.11171,-0.16756 l -0.10053,0.0335 -0.0447,0.15639 q -0.0447,0.0223 -0.11171,0.0223 l -0.59203,-0.067 -0.27926,0.067 -0.45799,-0.0894 -0.22341,0.0223 -0.18989,-0.0894 -0.17873,0.0224 -0.17873,-0.0447 -0.21224,0.0447 -0.0447,-0.0224 q -0.0447,0.0894 -0.1117,0.14522 -0.067,0.0559 -0.17873,0.23458 -0.25692,0.21224 -0.32394,0.51384 -0.067,0.3016 -0.39097,0.33511 -0.0223,0.0447 -0.067,0.11171 0.0223,0.0223 0.067,0.18989 v 0.0447 q 0,0.26809 -0.43564,0.54736 -0.067,0.40213 -0.16756,0.58086 -0.0894,0.17872 -0.12287,0.3016 -0.0335,0.1117 -0.1899,0.1899 l -0.0447,0.067 v 0.32394 q 0,0.0223 -0.067,0.14522 -0.067,0.1117 -0.1899,0.33511 l -0.067,0.1117 -0.0894,0.36863 q -0.22341,0.15638 -0.22341,0.43564 l 0.0223,0.63672 q 0,0.16756 -0.2234,0.34628 -0.21224,0.17873 -0.42448,0.17873 -0.54735,0 -0.74842,-0.65906 l -0.067,-0.0894 q -0.23458,-0.1899 -0.23458,-0.56969 0,-0.43565 0.45799,-1.30694 l 0.73725,-1.32928 q 0.0112,-0.0223 0.29043,-0.20107 l 0.12287,0.0447 q 0.0447,-0.0223 0.0447,-0.0894 0,-0.0223 -0.12287,-0.32394 v -0.0447 q 0,-0.0894 0.0782,-0.1117 l 0.0894,-0.10053 -0.0223,-0.22341 q 0.20107,-0.3016 0.21224,-0.39097 l 0.11171,-0.25692 q 0.1117,-0.25692 0.17872,-0.26809 0,-0.44681 0.26809,-0.65905 l 0.0894,-0.1899 q 0.0335,-0.067 0.14521,-0.0782 0.11171,-0.0112 0.11171,-0.0335 0,-0.0447 -0.0335,-0.11171 -0.0335,-0.067 -0.0335,-0.1117 0,-0.11171 0.12288,-0.29043 0.13404,-0.17873 0.1899,-0.17873 l 0.16755,0.10053 v -0.067 q -0.1117,-0.10053 -0.1117,-0.16756 0,-0.0894 0.10053,-0.23457 0.10054,-0.15639 0.12288,-0.22341 l 0.0894,-0.11171 q 0.0223,0 0.1117,-0.31277 0.0894,-0.31277 0.25692,-0.3016 v -0.1117 q 0,-0.11171 0.25692,-0.53619 l 0.59204,-1.05002 q 0.0223,-0.1117 0.17872,-0.39096 l -0.0223,-0.26809 q 0,-0.17873 0.20107,-0.55852 0.21224,-0.3798 0.34628,-0.3798 0.067,0 0.0894,0.0223 0.0335,0.0224 0.0559,0.0224 l 0.17873,-0.0224 0.35745,0.32395 q 0.14521,0.12287 0.16756,0.43564 l 0.0447,0.067 q 0.27926,0.51384 0.27926,0.72607 0,0.26809 -0.0559,0.41331 -0.0447,0.13404 -0.33512,0.32394 -0.27926,0.32394 -0.34628,0.56969 -0.067,0.23458 -0.23458,0.44682 -0.15639,0.21224 -0.27926,0.62554 -0.12287,0.41331 -0.42448,0.61438 -0.0335,0.3016 -0.0894,0.51384 v 0.0223 q 0,0.067 0.0894,0.067 l 0.36863,-0.0447 q 0.067,0 0.15638,0.0335 0.10054,0.0335 0.1899,0.0335 0.0894,0 0.22341,-0.0894 h 0.067 q 0.0447,0 0.27926,0.1117 l 0.0447,-0.0223 q 0.067,-0.1117 0.13405,-0.1117 l 0.43565,0.0447 0.21223,-0.0223 q 0.15639,-0.10054 0.48033,-0.11171 0.33512,-0.0112 0.45799,-0.067 0.13405,-0.0558 0.23458,-0.067 0.10053,-0.0112 0.25692,-0.0894 0.16756,-0.0782 0.27926,-0.0782 0.25692,0 0.71491,-0.23458 0.15638,0.0447 0.17872,0.0447 0.21224,0 0.34629,-0.17873 0.13404,-0.17873 0.3016,-0.20107 l 0.68139,-0.3016 q 0.0894,-0.0335 0.39097,-0.36862 l 0.20107,-0.13405 0.13404,-0.1899 q 0,-0.0223 0.21224,-0.13404 -0.0447,-0.0223 -0.067,-0.067 l 0.24575,-0.27927 q -0.0223,-0.1117 -0.0223,-0.13404 v -0.0447 q 0.1117,-0.16756 0.2234,-0.24575 0.12288,-0.0782 0.12288,-0.10054 l -0.1117,-0.13404 q 0.15638,-0.15639 0.15638,-0.20107 l -0.0447,-0.32394 0.0447,-0.56969 q 0,-0.43565 -0.0559,-0.55852 -0.0558,-0.13405 -0.0782,-0.26809 -0.21224,-0.41331 -0.59204,-0.6814 -0.0335,-0.0223 -0.0335,-0.0782 l -0.0223,-0.11171 v -0.0447 l -0.35745,0.0447 q -0.0223,0 -0.0782,-0.1117 -0.0447,-0.11171 -0.15638,-0.11171 l -0.15639,0.067 h -0.0223 q -0.0782,0 -0.39096,-0.21224 -0.067,-0.0223 -0.27926,-0.0223 l -0.15639,-0.067 q -0.067,-0.0447 -0.1117,-0.0447 h -0.067 l -0.25692,0.0447 -0.56969,-0.0447 -0.34628,-0.067 q -0.1899,0.13405 -0.24575,0.13405 -0.0447,0 -0.21224,-0.067 h -0.0223 l -0.33511,0.0447 q -0.15639,0.0223 -0.25692,0.0447 h -0.067 q -0.36863,0 -0.5697,-0.067 h -0.067 q -0.12287,0 -0.20107,0.0894 -0.0782,0.0782 -0.14521,0.0782 -0.0447,0 -0.11171,-0.14521 -0.14521,0.1117 -0.21223,0.14521 l -0.20107,-0.0782 q -0.0447,0.0894 -0.6814,0.1899 l -0.53618,0.1117 -0.0894,-0.0223 q -0.25692,0.0894 -0.42448,0.12287 -0.16755,0.0335 -0.3016,0.10054 -0.12287,0.0558 -0.26809,0.0782 -0.14522,0.0223 -0.42448,0.1117 l -0.17872,-0.0447 q -0.21224,0.12288 -0.61438,0.29043 -0.40213,0.16756 -0.50267,0.26809 -0.10053,0.10054 -0.18989,0.10054 -0.0223,0 -0.13405,-0.0223 h -0.0223 q -0.10053,0 -0.33511,0.23458 -0.22341,0.2234 -0.39097,0.32394 -0.16755,0.10053 -0.3016,0.32394 -0.12287,0.21224 -0.58086,0.31277 -0.0223,0.0223 -0.0447,0.067 v 0.17872 q -0.17873,0.10054 -0.32394,0.39097 l -0.067,0.1117 -0.0223,0.21224 q 0,0.33511 -0.0894,0.35745 -0.0894,0.0223 -0.1899,0.10054 -0.0894,0.067 -0.17873,0.067 -0.18989,0 -0.35745,-0.33511 -0.16756,-0.33512 -0.16756,-0.40214 0,-0.65905 0.43565,-0.97183 l 0.82661,-0.6032 q 0.41331,-0.3016 0.70374,-0.3016 0.0894,-0.0447 0.1899,-0.21224 0.10053,-0.16755 0.45798,-0.24575 l 0.17873,0.067 q 0.0223,0 0.067,-0.0894 0.0447,-0.0894 0.13405,-0.14521 0.10053,-0.0559 0.16756,-0.14522 l 0.29043,-0.1899 q 0.0223,0 0.0447,-0.0223 l 0.16755,0.0447 q 0.0224,0 0.067,-0.0223 0.0447,-0.0223 0.15638,-0.0223 0.0447,0 0.067,-0.1117 0.0447,-0.0559 0.12287,-0.067 z" />
        <path
           inkscape:connector-curvature="0"
           id="path832"
           style="font-style:normal;font-variant:normal;font-weight:bold;font-stretch:normal;font-size:22.87703323px;line-height:0px;font-family:'Rage Italic';-inkscape-font-specification:'Rage Italic,  Bold';fill:#f8f8f8;fill-opacity:1;stroke-width:0.26458335"
           d="m 127.53098,118.71521 0.0559,-0.23458 q -0.0782,-0.067 -0.0782,-0.16755 0,-0.48033 0.14522,-0.63672 0.15638,-0.15638 0.27926,-0.50267 0.13404,-0.33511 0.22341,-0.4133 0.0894,-0.0782 0.21223,-0.45799 0.12288,-0.37979 0.55852,-0.77076 0.0782,-0.56969 0.50267,-0.68139 l 0.41331,-0.64789 q 0.0559,-0.067 0.15639,-0.0894 0.1117,-0.0335 0.27926,-0.17873 0.067,-0.25692 0.43564,-0.43565 l 0.32395,-0.32394 0.17872,-0.0894 q 0.067,-0.0447 0.34629,-0.31277 0.27926,-0.26809 0.54735,-0.42448 0.27926,-0.16756 0.52501,-0.31277 0.24575,-0.15639 0.29043,-0.26809 0.0558,-0.12288 0.17872,-0.36863 0.12288,-0.25692 0.22341,-0.53618 l 0.22341,-0.29043 q 0.0223,-0.0223 0.0223,-0.0447 0,-0.0223 -0.0447,-0.12287 v -0.0224 q 0,-0.24574 0.21224,-0.50266 0.22341,-0.26809 0.22341,-0.59204 0,-0.0894 0.15638,-0.32394 0.16756,-0.24575 0.25692,-0.29043 l -0.0447,-0.27926 q 0.067,-0.17873 0.15639,-0.27926 0.0894,-0.11171 0.17872,-0.51384 0.12288,-0.27926 0.23458,-0.27926 0.0894,0 0.14522,0.1117 0.0559,0.11171 0.0782,0.11171 0.0223,-0.0223 0.0223,-0.0447 0,-0.13404 -0.1117,-0.17872 -0.11171,-0.0559 -0.11171,-0.13405 0,-0.27926 0.0782,-0.4133 0.0782,-0.13405 0.0894,-0.22341 0.0112,-0.10054 0.0782,-0.16756 0.0782,-0.067 0.0894,-0.14521 0.0112,-0.0782 0.0335,-0.17873 v -0.1117 q 0,-0.11171 0.14521,-0.30161 0.14522,-0.20106 0.16756,-0.24575 0.0223,-0.0447 0.0447,-0.067 l 0.10054,-0.0223 0.0223,-0.067 q -0.16756,-0.0223 -0.16756,-0.1899 0,-0.17873 0.25692,-0.26809 -0.067,-0.14521 -0.067,-0.23458 0,-0.29043 0.29043,-0.29043 h 0.0782 l 0.0223,-0.0558 q -0.10053,-0.11171 -0.10053,-0.20107 0,-0.39096 0.1899,-0.39096 0.0223,0 0.067,0.0223 l 0.067,0.0223 v -0.067 q -0.13404,-0.12288 -0.13404,-0.22341 l 0.0894,-0.25692 -0.0223,-0.17873 q 0,-0.1117 0.12287,-0.16756 0.12288,-0.067 0.12288,-0.1117 l 0.0335,-0.1117 q 0.0223,-0.0447 0.0223,-0.27927 0.0558,-0.0559 0.0894,-0.13404 v -0.067 l -0.0223,-0.23458 q 0,-0.0223 0.0559,-0.12288 0.0559,-0.10053 0.0559,-0.14521 0,-0.78193 -0.41331,-1.0947 -0.13404,-0.0223 -0.22341,-0.10054 -0.0223,0 -0.0559,-0.0223 h -0.37979 l -0.34629,0.16756 -0.20107,-0.0223 q -0.14521,0.15638 -0.16755,0.15638 l -0.15639,-0.0223 q -0.0447,0 -0.13404,0.12288 -0.0782,0.12287 -0.20107,0.17872 -0.12288,0.0559 -0.26809,0.22341 -0.13405,0.15639 -0.26809,0.21224 -0.13405,0.0559 -0.22341,0.14522 -0.0782,0.0782 -0.34628,0.25692 -0.11171,0.3016 -0.43565,0.4133 -0.0447,0.0447 -0.0894,0.25692 -0.3016,0.25692 -0.48033,0.54735 l -0.89364,1.32928 q -0.0447,0.0559 -0.0782,0.25692 -0.0335,0.20107 -0.0782,0.24575 l -0.1899,0.20107 v 0.0447 l 0.0223,0.11171 q -0.24575,0.2234 -0.24575,0.27926 0,0.0894 0.0223,0.15638 v 0.12288 q 0,0.0112 -0.13404,0.51384 l -0.12288,0.4915 q -0.0447,0.0894 -0.0447,0.26809 l -0.1117,0.69256 q 0,0.0112 0.0782,0.13405 0.0782,0.1117 0.0782,0.15638 l -0.0223,0.27926 0.0223,0.41331 -0.067,0.24575 q 0.0894,0.12287 0.23458,0.43565 l 0.0894,0.14521 h 0.0223 l -0.0223,0.29043 q 0.20107,0.14522 0.30161,0.42448 0.1117,0.26809 0.33511,0.33511 0.23458,0.067 0.39096,0.42448 0.15639,0.34628 0.15639,0.62554 0,0.34628 -0.15639,0.34628 -0.40213,0 -0.48033,-0.0894 -0.067,-0.0894 -0.27926,-0.45799 l -0.29043,-0.73724 -0.33511,-0.59204 q -0.10053,-0.16755 -0.13405,-0.32394 -0.0335,-0.15639 -0.13404,-0.24575 -0.0894,-0.0894 -0.0894,-0.14521 l 0.0223,-0.17873 -0.0447,-0.23458 q 0,-0.1117 -0.067,-0.24575 -0.067,-0.13404 -0.0782,-0.32394 -0.0112,-0.20107 -0.10053,-0.31277 -0.0782,-0.12288 -0.0782,-0.32395 0,-0.0894 -0.067,-0.27926 0.0223,-0.1117 0.0223,-0.43564 l -0.067,-0.33512 v -0.0447 l -0.0223,-0.14521 v -0.0447 q 0,-0.87129 0.21224,-1.57503 0.0223,-0.067 0.0223,-0.25692 l 0.22341,-0.77075 0.16755,-0.36863 q 0.20107,-0.4915 0.36863,-0.70374 0.17872,-0.21223 0.2234,-0.34628 0.0447,-0.14521 0.29044,-0.25692 0.21223,-0.39096 0.25692,-0.43565 l 0.13404,-0.0223 q 0.15639,-0.33511 0.48033,-0.39096 0,-0.26809 0.52501,-0.50267 0.1899,-0.1117 0.29043,-0.24575 0.10053,-0.13404 0.33511,-0.13404 l 1.20641,-0.457992 q 0.0335,-0.02234 0.1899,0.134042 h 0.0223 q 0.067,0 0.0782,-0.0782 0.0112,-0.07819 0.0894,-0.111704 0.0782,-0.04468 0.14522,-0.134045 h 0.0447 l 0.16756,0.04468 q 0.45798,0 0.65905,-0.06702 h 0.17873 l 0.10053,-0.02234 q 0.83778,0 1.05002,0.346279 l 0.6814,0.59203 0.12287,0.36863 0.067,0.74842 v 0.25692 l -0.10054,0.17872 q 0.0335,0.067 0.0335,0.10054 l -0.16755,1.41864 -0.21224,0.65906 q -0.23458,0.80427 -0.39097,0.86012 -0.14521,0.0558 -0.14521,0.0782 0.0894,0.12288 0.0894,0.20107 l -0.0447,0.14522 v 0.17872 l -0.15639,0.53618 q -0.067,0.27926 -0.3016,0.42448 -0.0447,0 -0.0447,0.0447 l 0.0894,0.11171 v 0.0447 q 0,0.0559 -0.0447,0.21224 -0.0447,0.15638 -0.0558,0.26809 -0.0112,0.10053 -0.12287,0.14521 -0.10054,0.0447 -0.12288,0.11171 v 0.3016 q 0,0.12287 -0.21224,0.29043 -0.20106,0.16755 -0.20106,0.21224 l 0.0223,0.26809 q -0.067,0.1117 -0.13405,0.36862 -0.067,0.25692 -0.16756,0.33511 -0.0894,0.0782 -0.10053,0.21224 -0.0112,0.13405 -0.17873,0.3798 -0.16755,0.23457 -0.16755,0.31277 0,0.067 0.0447,0.067 0.1117,0 0.22341,-0.16756 0.12287,-0.17872 0.48033,-0.33511 l 0.36862,-0.3016 q 0.0894,-0.0894 0.26809,-0.15639 0.1899,-0.067 0.46916,-0.37979 0.29043,-0.31277 0.61437,-0.40214 l 0.32394,-0.2234 q 0.13405,-0.0782 0.22341,-0.0782 0.23458,0 0.23458,0.23458 0,0.0894 -0.0782,0.26809 -0.067,0.16756 -0.0894,0.32394 -0.0112,0.14522 -0.29044,0.32395 l -0.14521,0.13404 -0.22341,-0.0223 q -0.0894,0.0447 -0.1899,0.23458 -0.10053,0.17873 -0.20106,0.17873 -0.0894,0 -0.20107,0.067 l -0.14522,0.0447 h -0.1117 q -0.0447,0.0335 -0.12288,0.1899 -0.0782,0.15638 -0.22341,0.1899 l -0.74841,0.40213 h -0.067 q -0.23458,0.23458 -0.3016,0.26809 H 135.205 q -0.51384,0.36862 -0.58086,0.45799 0,0.36862 -0.22341,0.50267 h -0.0223 l 0.0223,0.25692 q 0,0.0447 -0.18989,0.22341 -0.0223,0 -0.0223,0.0782 l 0.0223,0.17873 v 0.0223 q 0,0.0447 -0.17873,0.31277 -0.17873,0.25692 -0.22341,0.36862 0.0223,0.0558 0.0223,0.12288 0,0.17872 -0.25692,0.29043 0,0.0894 -0.33511,0.74842 -0.32394,0.64788 -0.46916,0.83778 l -1.13938,2.14472 q -0.067,0.067 -0.17873,0.0894 -0.0782,0.1899 -0.25692,0.27926 0,0.34629 -0.26809,0.45799 -0.10053,0.26809 -0.27926,0.43565 -0.067,0.42447 -0.22341,0.45799 -0.14521,0.0447 -0.17873,0.18989 -0.0335,0.14522 -0.25691,0.22341 -0.0782,0.3798 -0.34629,0.40214 -0.0894,0.10053 -0.14521,0.25692 -0.0447,0.15638 -0.29043,0.26809 -0.23458,0.12287 -0.39097,0.26809 -0.15639,0.14521 -0.36862,0.24575 -0.50267,-0.0335 -0.82662,-0.58087 -0.31277,-0.54735 -0.31277,-1.05002 l 0.0447,-0.36862 -0.0223,-0.33511 z m 0.93832,0.56969 0.0558,0.13405 0.0112,0.17873 q 0.0223,0.0782 0.0559,0.0782 0.11171,0 0.26809,-0.27926 l 0.27926,-0.29043 q 0.17873,-0.1899 0.26809,-0.52501 0.10054,-0.32394 0.39097,-0.36863 0.0447,-0.45798 0.56969,-1.0947 0.0447,-0.0782 0.10053,-0.26809 0.0559,-0.17873 0.16756,-0.31277 0.1117,-0.13405 0.12287,-0.24575 0.0223,-0.10053 0.25692,-0.36862 0.0335,-0.27926 0.20107,-0.58087 0.16756,-0.3016 0.34629,-0.64788 l 0.39096,-0.78193 0.6814,-0.983 q 0,-0.067 -0.0335,-0.067 l -0.42447,0.22341 q -0.22341,0.0894 -0.31277,0.24575 -0.0782,0.14521 -0.12288,0.14521 -0.14521,0 -0.26809,0.23458 -0.12287,0.22341 -0.25692,0.34629 -0.13404,0.12287 -0.20107,0.16755 -0.067,0.0335 -0.067,0.0559 0,0.0223 -0.0782,0.22341 -0.11171,0.0894 -0.26809,0.3016 -0.15639,0.20107 -0.24575,0.25692 -0.0782,0.0447 -0.1899,0.33512 l -0.17872,0.1117 q -0.10054,0.29043 -0.1899,0.45799 l -0.15639,0.0223 q -0.0782,0.13404 -0.0894,0.25692 -0.0112,0.13404 -0.0447,0.13404 l -0.12288,0.0447 q -0.0447,0.0558 -0.15638,0.3016 l -0.0894,0.067 q -0.0447,0.0447 -0.0447,0.3016 0,0.11171 -0.1117,0.24575 -0.10054,0.13405 -0.1899,0.41331 l -0.13405,0.36862 q 0,0.15639 -0.0894,0.35745 l -0.12287,0.0782 q 0,0.0894 -0.067,0.50267 0.0559,0.10053 0.0894,0.2234 z" />
      </g>
    </g>
  </g>
</svg>
